<svg viewBox="0 0 24 24" fill="currentColor" aria-hidden="true"><path d="M12 .5C5.65.5.5 5.65.5 12c0 5.08 3.29 9.39 7.86 10.91.58.11.79-.25.79-.56v-2c-3.2.7-3.87-1.54-3.87-1.54-.52-1.32-1.27-1.68-1.27-1.68-1.04-.71.08-.7.08-.7 1.15.08 1.76 1.18 1.76 1.18 1.02 1.75 2.69 1.24 3.34.95.1-.75.4-1.24.73-1.53-2.55-.29-5.23-1.28-5.23-5.69 0-1.26.45-2.29 1.18-3.1-.12-.29-.51-1.46.11-3.04 0 0 .97-.31 3.18 1.18.92-.26 1.91-.39 2.89-.39.98 0 1.97.13 2.89.39 2.21-1.5 3.18-1.18 3.18-1.18.62 1.58.23 2.75.11 3.04.73.81 1.18 1.84 1.18 3.1 0 4.43-2.69 5.4-5.25 5.68.41.36.78 1.06.78 2.13v3.16c0 .31.21.67.8.55C20.71 21.39 24 17.08 24 12 24 5.65 18.85.5 12 .5z"/></svg>
